<svg width="26" height="25" viewBox="0 0 26 25" fill="none" xmlns="http://www.w3.org/2000/svg">
<path d="M11.7099 11.0987L13.8318 9.04961C14.6264 8.28231 15.8925 8.30441 16.6598 9.09897L16.8283 9.27351C17.5956 10.0681 17.5735 11.3342 16.779 12.1015L14.6571 14.1506M11.7099 11.0987L4.50155 18.0597C3.70699 18.827 3.68489 20.0932 4.45219 20.8877L4.62074 21.0623C5.38804 21.8568 6.65418 21.8789 7.44874 21.1116L14.6571 14.1506M11.7099 11.0987L14.6571 14.1506M9.54699 8.91781L7.26497 7.90595M12.6402 5.92911L11.7512 3.59825M16.9451 6.00426L17.9149 3.70584M19.9306 9.09536L22.2519 8.17711M19.8557 13.3877L22.1546 14.3608M16.7605 16.3742L17.6532 18.7036" stroke="#CDCECF" stroke-width="1.5" stroke-linecap="round" stroke-linejoin="round"/>
</svg>
